<?xml version="1.0" encoding="utf-8"?>
<!-- Generator: Adobe Illustrator 26.1.0, SVG Export Plug-In . SVG Version: 6.00 Build 0)  -->
<svg version="1.1" id="Layer_1" xmlns="http://www.w3.org/2000/svg" xmlns:xlink="http://www.w3.org/1999/xlink" x="0px" y="0px"
	 viewBox="0 0 222 408" style="enable-background:new 0 0 222 408;" xml:space="preserve">
<style type="text/css">
	.st0{clip-path:url(#SVGID_00000101822183436380016710000009120867122644575874_);}
	.st1{fill:#F4F4F4;}
	.st2{fill:#FFFFFF;}
	.st3{fill:#3F3D56;}
	.st4{fill:#CFDEF3;}
	.st5{fill:#17275F;}
	.st6{fill:#DAE9FF;}
	.st7{fill:#5784F5;}
	.st8{fill:#161B3D;}
	.st9{fill:#7398F6;}
</style>
<g>
	<defs>
		<rect id="SVGID_1_" x="-88" width="515" height="439.4"/>
	</defs>
	<clipPath id="SVGID_00000078732322348272720570000018025424821581238678_">
		<use xlink:href="#SVGID_1_"  style="overflow:visible;"/>
	</clipPath>
	<g style="clip-path:url(#SVGID_00000078732322348272720570000018025424821581238678_);">
		<path class="st1" d="M222,104.2h-2.4v-66c0-10.1-4-19.8-11.2-27C201.3,4,191.6,0,181.5,0H42C31.9,0,22.2,4,15.1,11.2
			c-7.1,7.2-11.2,16.9-11.2,27v362c0,10.1,4,19.8,11.2,27c7.1,7.2,16.8,11.2,26.9,11.2h139.5c10.1,0,19.8-4,26.9-11.2
			c7.1-7.2,11.2-16.9,11.2-27V151.2h2.4L222,104.2z"/>
		<path class="st2" d="M183,9.9h-18.2c0.8,2.1,1.2,4.3,0.9,6.5c-0.2,2.2-1,4.3-2.2,6.2c-1.2,1.8-2.9,3.4-4.9,4.4
			c-2,1-4.1,1.6-6.4,1.6H72.4c-2.2,0-4.4-0.5-6.4-1.6c-2-1-3.6-2.6-4.9-4.4c-1.2-1.8-2-4-2.2-6.2c-0.2-2.2,0.1-4.4,0.9-6.5h-17
			c-7.5,0-14.8,3-20.1,8.4c-5.3,5.3-8.3,12.6-8.3,20.2V400c0,7.6,3,14.8,8.3,20.2c5.3,5.3,12.6,8.4,20.1,8.4H183
			c7.5,0,14.8-3,20.1-8.4c5.3-5.4,8.3-12.6,8.3-20.2V38.5c0-7.6-3-14.8-8.3-20.2C197.8,12.9,190.6,9.9,183,9.9L183,9.9z"/>
		<path class="st3" d="M112.9,223.8c-13.1,0-25.8-3.9-36.7-11.2c-10.9-7.3-19.3-17.6-24.3-29.7c-5-12.1-6.3-25.4-3.8-38.2
			c2.5-12.8,8.8-24.6,18.1-33.9c9.2-9.3,21-15.6,33.8-18.1c12.8-2.6,26.1-1.2,38.1,3.8c12.1,5,22.4,13.5,29.6,24.4
			c7.3,10.9,11.1,23.7,11.1,36.8c0,17.5-7,34.4-19.4,46.8C147.2,216.8,130.4,223.8,112.9,223.8z M112.9,92.7
			c-12.8,0-25.3,3.8-36,10.9c-10.7,7.1-19,17.3-23.9,29.1c-4.9,11.9-6.2,24.9-3.7,37.5c2.5,12.6,8.7,24.2,17.7,33.2
			c9.1,9.1,20.6,15.3,33.2,17.8c12.6,2.5,25.6,1.2,37.4-3.7c11.8-4.9,22-13.2,29.1-23.9c7.1-10.7,10.9-23.2,10.9-36.1
			c0-17.2-6.9-33.7-19-45.9C146.6,99.5,130.1,92.7,112.9,92.7z"/>
		<path class="st4" d="M137.2,138.4c5.7-4.8,9.1-12.4,8.2-19.7c-0.9-7.4-6.5-14.1-13.7-15.7c-7.2-1.6-15.5,2.8-17.7,9.9
			c-1.2-13.7-2.6-27.9-9.9-39.5c-6.6-10.5-17.9-18.1-30.2-19.4c-12.3-1.3-25.3,3.7-33,13.5c-7.7,9.7-9.6,23.9-4.2,35.1
			c4,8.2,11.3,14.4,18.9,19.4c24.4,15.9,54.7,21.3,83.5,17L137.2,138.4z"/>
		<path class="st2" d="M53.1,57.9c10.2,8.3,19.5,17.6,27.8,27.7c13.1,15.8,23.6,33.5,31.4,52.5c0.6,1.4-1.7,2-2.2,0.6
			c-12.6-30.9-32.8-58.1-58.6-79.2C50.3,58.6,51.9,56.9,53.1,57.9z"/>
		<path class="st5" d="M56.6,288.7c3.8,0,6.9-3.1,6.9-6.9c0-3.8-3.1-6.9-6.9-6.9c-3.8,0-6.9,3.1-6.9,6.9
			C49.6,285.6,52.7,288.7,56.6,288.7z"/>
		<path class="st6" d="M171.2,286.8h-88c-1.3,0-2.6-0.5-3.6-1.5c-0.9-0.9-1.5-2.2-1.5-3.6c0-1.3,0.5-2.6,1.5-3.6
			c0.9-0.9,2.2-1.5,3.6-1.5h88c1.3,0,2.6,0.5,3.6,1.5c0.9,0.9,1.5,2.2,1.5,3.6c0,1.3-0.5,2.6-1.5,3.6
			C173.8,286.3,172.5,286.8,171.2,286.8z"/>
		<path class="st7" d="M143.9,286.9H82.8c-1.4,0-2.6-0.5-3.6-1.5c-1-1-1.5-2.3-1.5-3.6c0-1.4,0.5-2.7,1.5-3.6c1-1,2.2-1.5,3.6-1.5
			h61.1c1.4,0,2.6,0.5,3.6,1.5s1.5,2.3,1.5,3.6c0,1.4-0.5,2.7-1.5,3.6S145.2,286.9,143.9,286.9z"/>
		<path class="st5" d="M56.6,319c3.8,0,6.9-3.1,6.9-6.9c0-3.8-3.1-6.9-6.9-6.9c-3.8,0-6.9,3.1-6.9,6.9C49.6,315.9,52.7,319,56.6,319
			z"/>
		<path class="st6" d="M171.2,317.1h-88c-1.3,0-2.6-0.5-3.6-1.5c-0.9-0.9-1.5-2.2-1.5-3.6c0-1.3,0.5-2.6,1.5-3.6
			c0.9-0.9,2.2-1.5,3.6-1.5h88c1.3,0,2.6,0.5,3.6,1.5c0.9,0.9,1.5,2.2,1.5,3.6c0,1.3-0.5,2.6-1.5,3.6
			C173.8,316.5,172.5,317.1,171.2,317.1z"/>
		<path class="st5" d="M56.6,349.2c3.8,0,6.9-3.1,6.9-6.9c0-3.8-3.1-6.9-6.9-6.9c-3.8,0-6.9,3.1-6.9,6.9
			C49.6,346.1,52.7,349.2,56.6,349.2z"/>
		<path class="st6" d="M171.2,347.3h-88c-1.3,0-2.6-0.5-3.6-1.5c-0.9-0.9-1.5-2.2-1.5-3.6c0-1.3,0.5-2.6,1.5-3.6
			c0.9-0.9,2.2-1.5,3.6-1.5h88c1.3,0,2.6,0.5,3.6,1.5c0.9,0.9,1.5,2.2,1.5,3.6c0,1.3-0.5,2.6-1.5,3.6
			C173.8,346.8,172.5,347.3,171.2,347.3z"/>
		<path class="st7" d="M123.8,317.1h-41c-1.4,0-2.6-0.5-3.6-1.5c-1-1-1.5-2.3-1.5-3.6c0-1.4,0.5-2.7,1.5-3.6c1-1,2.2-1.5,3.6-1.5h41
			c1.4,0,2.6,0.5,3.6,1.5c1,1,1.5,2.3,1.5,3.6c0,1.4-0.5,2.7-1.5,3.6C126.4,316.6,125.1,317.1,123.8,317.1z"/>
		<path class="st7" d="M160.2,347.4H82.8c-1.4,0-2.6-0.5-3.6-1.5c-1-1-1.5-2.3-1.5-3.6c0-1.4,0.5-2.7,1.5-3.6c1-1,2.2-1.5,3.6-1.5
			h77.4c1.4,0,2.6,0.5,3.6,1.5s1.5,2.3,1.5,3.6c0,1.4-0.5,2.7-1.5,3.6S161.6,347.4,160.2,347.4z"/>
		<path class="st3" d="M147.9,147.3h-8.6v-25.6c0-0.8,0.3-1.5,0.8-2c0.5-0.5,1.2-0.8,2-0.8h3c0.8,0,1.5,0.3,2,0.8
			c0.5,0.5,0.8,1.3,0.8,2V147.3z"/>
		<path class="st8" d="M153.1,190.9H70.5l-0.3-46.7c0-0.7,0.1-1.4,0.4-2.1c0.3-0.7,0.7-1.3,1.2-1.8l20.8-20.3c1-1,2.3-1.5,3.7-1.5
			l34.7-0.3c0.8,0,1.6,0.2,2.3,0.5c0.7,0.3,1.4,0.8,1.9,1.4l0,0l16.5,20.3c1,1.2,1.5,2.7,1.5,4.2V190.9z"/>
		<path class="st9" d="M153.1,190.9h-44.4V149c0-1.3,0.5-2.5,1.3-3.5l19.3-22.7l0,0c0.5-0.6,1.1-1.1,1.8-1.4
			c0.7-0.3,1.5-0.5,2.2-0.5h0c0.8,0,1.5,0.2,2.2,0.5c0.7,0.3,1.3,0.8,1.8,1.4l14.4,17.2c0.8,1,1.3,2.2,1.3,3.4V190.9z"/>
		<path class="st2" d="M134.3,174.8h-6.4c-0.4,0-0.8-0.2-1.1-0.5c-0.3-0.3-0.5-0.7-0.5-1.1v-5.4c0-0.4,0.2-0.8,0.5-1.1
			c0.3-0.3,0.7-0.5,1.1-0.5h6.4c0.4,0,0.8,0.2,1.1,0.5c0.3,0.3,0.5,0.7,0.5,1.1v5.4c0,0.4-0.2,0.8-0.5,1.1
			C135.1,174.6,134.7,174.8,134.3,174.8z"/>
		<path class="st2" d="M134.3,161h-6.4c-0.4,0-0.8-0.2-1.1-0.5s-0.5-0.7-0.5-1.1v-5.3c0-0.4,0.2-0.8,0.5-1.1
			c0.3-0.3,0.7-0.5,1.1-0.5h6.4c0.4,0,0.8,0.2,1.1,0.5c0.3,0.3,0.5,0.7,0.5,1.1v5.3c0,0.4-0.2,0.8-0.5,1.1
			C135.1,160.8,134.7,161,134.3,161z"/>
		<path class="st2" d="M94.6,172.7h-6.4c-0.4,0-0.8-0.2-1.1-0.5c-0.3-0.3-0.5-0.7-0.5-1.1v-5.4c0-0.4,0.2-0.8,0.5-1.1
			c0.3-0.3,0.7-0.5,1.1-0.5h6.4c0.4,0,0.8,0.2,1.1,0.5c0.3,0.3,0.5,0.7,0.5,1.1v5.4c0,0.4-0.2,0.8-0.5,1.1
			C95.4,172.5,95,172.7,94.6,172.7z"/>
		<path class="st2" d="M94.6,158.9h-6.4c-0.4,0-0.8-0.2-1.1-0.5c-0.3-0.3-0.5-0.7-0.5-1.1V152c0-0.4,0.2-0.8,0.5-1.1
			c0.3-0.3,0.7-0.5,1.1-0.5h6.4c0.4,0,0.8,0.2,1.1,0.5c0.3,0.3,0.5,0.7,0.5,1.1v5.3c0,0.4-0.2,0.8-0.5,1.1
			C95.4,158.7,95,158.9,94.6,158.9z"/>
		<path class="st3" d="M169.1,191.4H56.7c-0.2,0-0.3-0.1-0.4-0.2c-0.1-0.1-0.2-0.3-0.2-0.4c0-0.2,0.1-0.3,0.2-0.4
			c0.1-0.1,0.3-0.2,0.4-0.2h112.4c0.2,0,0.3,0.1,0.4,0.2c0.1,0.1,0.2,0.3,0.2,0.4c0,0.2-0.1,0.3-0.2,0.4
			C169.4,191.3,169.3,191.4,169.1,191.4z"/>
	</g>
</g>
</svg>
