<?xml version="1.0" encoding="utf-8"?>
<!-- Generator: Adobe Illustrator 26.1.0, SVG Export Plug-In . SVG Version: 6.00 Build 0)  -->
<svg version="1.1" id="Layer_1" xmlns="http://www.w3.org/2000/svg" xmlns:xlink="http://www.w3.org/1999/xlink" x="0px" y="0px"
	 viewBox="0 0 26.8 26.9" style="enable-background:new 0 0 26.8 26.9;" xml:space="preserve">
<style type="text/css">
	.st0{fill:#F15838;}
	.st1{fill:#DA392E;}
	.st2{fill:#FFFFFF;}
</style>
<g>
	<path class="st0" d="M26.6,13.4c0,0.1,0,0.3,0,0.4c-0.2,7.2-6,12.9-13.2,12.9c-0.4,0-0.7,0-1-0.1C5.4,26.1,0,20.4,0,13.4
		C0,6.1,6,0.1,13.3,0.1S26.6,6.1,26.6,13.4z"/>
	<path class="st1" d="M26.6,13.8c-0.2,7.2-6,12.9-13.2,12.9c-0.4,0-0.7,0-1-0.1L6,20.4l5.7,0.5l4-0.2l1.9-1l0.1-3.2l-2.3-3l-4.1-1.9
		l-2.2-1.5l0.4-2.7l2.4-1.3l3.9-0.5l1.7,0.1l2.3,0.5L26.6,13.8z"/>
	<g>
		<path class="st2" d="M18.3,9.6c-0.1-0.1-0.2-0.2-0.6-0.4S17,8.8,16.5,8.6C16,8.4,15.5,8.2,15,8c-0.6-0.2-1.1-0.3-1.7-0.3
			c-0.7,0-1.3,0.1-1.7,0.4C11.2,8.4,11,8.8,11,9.4c0,0.4,0.2,0.8,0.5,1c0.3,0.3,0.8,0.5,1.3,0.6c0.6,0.2,1.3,0.4,2.1,0.6
			c1.2,0.3,2.2,0.7,3.1,1.1c0.9,0.5,1.5,1,2,1.7s0.7,1.6,0.7,2.8c0,1-0.2,1.9-0.6,2.6s-0.9,1.3-1.5,1.7c-0.7,0.5-1.4,0.8-2.2,1
			c-0.8,0.2-1.7,0.3-2.6,0.3S12,22.7,11,22.5c-0.9-0.2-1.8-0.5-2.7-0.8c-0.7-0.3-1.3-0.6-1.8-0.9c-0.3-0.2-0.5-0.6-0.3-1l1.6-3.1
			c0.1,0.1,0.3,0.3,0.7,0.5c0.4,0.3,0.9,0.5,1.4,0.7s1,0.4,1.5,0.6c0.8,0.2,1.5,0.4,2.3,0.4c0.9,0,1.5-0.1,1.9-0.4s0.6-0.6,0.6-1
			c0-0.5-0.2-0.8-0.6-1.1c-0.4-0.3-0.9-0.5-1.6-0.7c-0.7-0.2-1.4-0.5-2.3-0.7c-1.1-0.4-2-0.7-2.8-1.2c-0.7-0.4-1.3-1-1.6-1.6
			c-0.4-0.6-0.5-1.4-0.5-2.3c0-1.3,0.3-2.4,0.9-3.3s1.4-1.6,2.5-2c1-0.5,2.2-0.7,3.4-0.7c0.9,0,1.7,0.1,2.5,0.3
			c0.8,0.2,1.6,0.5,2.2,0.8c0.5,0.3,1,0.5,1.5,0.7C20,5.9,20.1,6.2,20,6.5L18.3,9.6z"/>
	</g>
</g>
</svg>
