<?xml version="1.0" encoding="utf-8"?>
<!-- Generator: Adobe Illustrator 26.1.0, SVG Export Plug-In . SVG Version: 6.00 Build 0)  -->
<svg version="1.1" id="Layer_1" xmlns="http://www.w3.org/2000/svg" xmlns:xlink="http://www.w3.org/1999/xlink" x="0px" y="0px"
	 viewBox="0 0 116 32" style="enable-background:new 0 0 116 32;" xml:space="preserve">
<style type="text/css">
	.st0{fill:#F15838;}
	.st1{fill:#DA392E;}
	.st2{fill:#FFFFFF;}
	.st3{fill:#1D1D1B;}
</style>
<g>
	<g>
		<path class="st0" d="M26.6,16c0,0.1,0,0.3,0,0.4c-0.2,7.2-6,12.9-13.2,12.9c-0.4,0-0.7,0-1-0.1C5.4,28.7,0,23,0,16
			C0,8.7,6,2.7,13.3,2.7S26.6,8.7,26.6,16z"/>
		<path class="st1" d="M26.6,16.4c-0.2,7.2-6,12.9-13.2,12.9c-0.4,0-0.7,0-1-0.1L6,23l5.7,0.5l4-0.2l1.9-1l0.1-3.2l-2.3-3l-4.1-1.9
			l-2.2-1.5L9.5,10l2.4-1.3l3.9-0.5l1.7,0.1l2.3,0.5L26.6,16.4z"/>
		<g>
			<path class="st2" d="M18.3,12.2c-0.1-0.1-0.2-0.2-0.6-0.4c-0.4-0.2-0.7-0.4-1.2-0.6c-0.5-0.2-1-0.4-1.5-0.6
				c-0.6-0.2-1.1-0.3-1.7-0.3c-0.7,0-1.3,0.1-1.7,0.4C11.2,11,11,11.4,11,12c0,0.4,0.2,0.8,0.5,1c0.3,0.3,0.8,0.5,1.3,0.6
				c0.6,0.2,1.3,0.4,2.1,0.6c1.2,0.3,2.2,0.7,3.1,1.1c0.9,0.5,1.5,1,2,1.7c0.5,0.7,0.7,1.6,0.7,2.8c0,1-0.2,1.9-0.6,2.6
				c-0.4,0.7-0.9,1.3-1.5,1.7c-0.7,0.5-1.4,0.8-2.2,1c-0.8,0.2-1.7,0.3-2.6,0.3s-1.8-0.1-2.8-0.3c-0.9-0.2-1.8-0.5-2.7-0.8
				c-0.7-0.3-1.3-0.6-1.8-0.9c-0.3-0.2-0.5-0.6-0.3-1l1.6-3.1c0.1,0.1,0.3,0.3,0.7,0.5c0.4,0.3,0.9,0.5,1.4,0.7
				c0.5,0.2,1,0.4,1.5,0.6c0.8,0.2,1.5,0.4,2.3,0.4c0.9,0,1.5-0.1,1.9-0.4c0.4-0.3,0.6-0.6,0.6-1c0-0.5-0.2-0.8-0.6-1.1
				c-0.4-0.3-0.9-0.5-1.6-0.7c-0.7-0.2-1.4-0.5-2.3-0.7c-1.1-0.4-2-0.7-2.8-1.2c-0.7-0.4-1.3-1-1.6-1.6c-0.4-0.6-0.5-1.4-0.5-2.3
				c0-1.3,0.3-2.4,0.9-3.3c0.6-0.9,1.4-1.6,2.5-2c1-0.5,2.2-0.7,3.4-0.7c0.9,0,1.7,0.1,2.5,0.3c0.8,0.2,1.6,0.5,2.2,0.8
				c0.5,0.3,1,0.5,1.5,0.7C20,8.5,20.1,8.8,20,9.1L18.3,12.2z"/>
		</g>
	</g>
	<path class="st3" d="M30.5,25.3V6.7h4.3v8l6.8-8h4.8L39.4,15l7.4,10.3h-4.9l-5.3-7.5l-1.9,2v5.5H30.5z"/>
	<path class="st3" d="M52.5,6.7l4,8.2l4-8.2h4.7L58.6,19v6.3h-4.2v-6.4L47.8,6.7H52.5z"/>
	<path class="st3" d="M82.4,20.5c0,1.1-0.3,1.9-0.9,2.7c-0.6,0.7-1.3,1.2-2.3,1.6c-1,0.4-2,0.5-3.2,0.5h-9V6.7h10.3
		c0.9,0,1.6,0.3,2.2,0.7c0.6,0.5,1.1,1.1,1.5,1.8c0.4,0.7,0.5,1.5,0.5,2.3c0,0.9-0.2,1.7-0.7,2.5c-0.5,0.8-1.1,1.4-2,1.8
		c1.1,0.3,1.9,0.9,2.5,1.7C82.1,18.2,82.4,19.3,82.4,20.5z M71.4,10.4v3.8h4.2c0.3,0,0.6-0.1,0.9-0.2c0.3-0.2,0.5-0.4,0.7-0.7
		c0.2-0.3,0.3-0.7,0.3-1.1c0-0.4-0.1-0.8-0.2-1c-0.2-0.3-0.4-0.5-0.6-0.7c-0.3-0.2-0.5-0.2-0.8-0.2C75.7,10.4,71.4,10.4,71.4,10.4z
		 M78,19.7c0-0.4-0.1-0.8-0.3-1.1c-0.2-0.3-0.4-0.6-0.6-0.7c-0.3-0.2-0.6-0.3-0.9-0.3h-4.9v4h4.8c0.4,0,0.7-0.1,1-0.3
		s0.5-0.4,0.7-0.7C77.9,20.4,78,20,78,19.7z"/>
	<path class="st3" d="M100.4,25.3V6.7h8.4c0.9,0,1.7,0.2,2.4,0.5c0.7,0.4,1.4,0.8,1.9,1.4c0.6,0.6,1,1.3,1.3,2
		c0.3,0.8,0.5,1.5,0.5,2.3s-0.1,1.5-0.4,2.2c-0.3,0.7-0.6,1.3-1,1.8c-0.5,0.6-1,1-1.6,1.3l4.1,6.9h-4.8l-3.6-6h-2.9v6L100.4,25.3
		L100.4,25.3z M104.7,15.5h3.9c0.4,0,0.7-0.1,0.9-0.3s0.5-0.5,0.7-0.9c0.2-0.4,0.3-0.8,0.3-1.3s-0.1-1-0.3-1.3
		c-0.2-0.4-0.5-0.7-0.8-0.9c-0.3-0.2-0.6-0.3-0.9-0.3h-3.8V15.5z"/>
	<rect x="84.6" y="6.7" class="st3" width="12.8" height="3.8"/>
	<rect x="84.6" y="14.1" class="st3" width="12.8" height="3.8"/>
	<rect x="84.6" y="21.5" class="st3" width="12.8" height="3.8"/>
</g>
</svg>
