<svg width="30" height="31" viewBox="0 0 30 31" fill="none" xmlns="http://www.w3.org/2000/svg">
<path d="M26.05 6.26258C25.4116 5.62384 24.6535 5.11714 23.8192 4.77144C22.9849 4.42574 22.0906 4.2478 21.1875 4.2478C20.2844 4.2478 19.3901 4.42574 18.5558 4.77144C17.7215 5.11714 16.9634 5.62384 16.325 6.26258L15 7.58758L13.675 6.26258C12.3854 4.97297 10.6363 4.24847 8.8125 4.24847C6.9887 4.24847 5.23961 4.97297 3.95 6.26258C2.66038 7.5522 1.93588 9.30129 1.93588 11.1251C1.93588 12.9489 2.66038 14.698 3.95 15.9876L5.275 17.3126L15 27.0376L24.725 17.3126L26.05 15.9876C26.6887 15.3491 27.1954 14.5911 27.5411 13.7568C27.8868 12.9225 28.0648 12.0282 28.0648 11.1251C28.0648 10.222 27.8868 9.32771 27.5411 8.49339C27.1954 7.65907 26.6887 6.90103 26.05 6.26258V6.26258Z" stroke="#667085" stroke-width="2" stroke-linecap="round" stroke-linejoin="round"/>
</svg>
